REM DIRINDEX 1\2\6,1\2\7,1\2\8,1\2\9,1\3\10,1\3\11,1\4\12,1\4\13,1\4\14,1\5\15,1\5\16,1\5\17
REM DIRNAME cjc020,folder01,folder02,folder03,folder04,folder05,folder06,folder07,folder08,folder09,folder10,folder11,folder12,folder13,folder14,folder15,folder16
TITLE ""
FILE "1900_2_sec10_0934_0950.mp3" MP3
  TRACK 01 AUDIO
    TITLE "0:"
    INDEX 01 00:00:00
  TRACK 02 AUDIO
    TITLE "13:cjc020_3992"
    INDEX 01 00:00:23
  TRACK 03 AUDIO
    TITLE "0:"
    INDEX 01 00:01:17
  TRACK 04 AUDIO
    TITLE "14:cjc020_3993"
    INDEX 01 00:01:21
  TRACK 05 AUDIO
    TITLE "0:"
    INDEX 01 00:03:23
  TRACK 06 AUDIO
    TITLE "13:cjc020_3994"
    INDEX 01 00:04:05
  TRACK 07 AUDIO
    TITLE "0:"
    INDEX 01 00:05:07
  TRACK 08 AUDIO
    TITLE "14:cjc020_3995"
    INDEX 01 00:05:10
  TRACK 09 AUDIO
    TITLE "0:"
    INDEX 01 00:08:01
  TRACK 10 AUDIO
    TITLE "13:cjc020_3996"
    INDEX 01 00:08:58
  TRACK 11 AUDIO
    TITLE "0:"
    INDEX 01 00:10:08
  TRACK 12 AUDIO
    TITLE "14:cjc020_3997"
    INDEX 01 00:10:10
  TRACK 13 AUDIO
    TITLE "0:"
    INDEX 01 00:12:56
  TRACK 14 AUDIO
    TITLE "13:cjc020_3998"
    INDEX 01 00:13:37
  TRACK 15 AUDIO
    TITLE "0:"
    INDEX 01 00:14:74
  TRACK 16 AUDIO
    TITLE "14:cjc020_3999"
    INDEX 01 00:15:01
  TRACK 17 AUDIO
    TITLE "0:"
    INDEX 01 00:17:49
  TRACK 18 AUDIO
    TITLE "13:cjc020_4000"
    INDEX 01 00:18:29
  TRACK 19 AUDIO
    TITLE "0:"
    INDEX 01 00:19:34
  TRACK 20 AUDIO
    TITLE "14:cjc020_4001"
    INDEX 01 00:19:40
  TRACK 21 AUDIO
    TITLE "0:"
    INDEX 01 00:22:25
  TRACK 22 AUDIO
    TITLE "13:cjc020_4002"
    INDEX 01 00:23:06
  TRACK 23 AUDIO
    TITLE "0:"
    INDEX 01 00:24:08
  TRACK 24 AUDIO
    TITLE "14:cjc020_4003"
    INDEX 01 00:24:12
  TRACK 25 AUDIO
    TITLE "0:"
    INDEX 01 00:26:73
  TRACK 26 AUDIO
    TITLE "13:cjc020_4004"
    INDEX 01 00:27:51
  TRACK 27 AUDIO
    TITLE "0:"
    INDEX 01 00:28:72
  TRACK 28 AUDIO
    TITLE "14:cjc020_4005"
    INDEX 01 00:28:74
  TRACK 29 AUDIO
    TITLE "0:"
    INDEX 01 00:30:71
  TRACK 30 AUDIO
    TITLE "12:cjc020_4006"
    INDEX 01 00:32:45
  TRACK 31 AUDIO
    TITLE "0:"
    INDEX 01 00:33:68
  TRACK 32 AUDIO
    TITLE "13:cjc020_4007"
    INDEX 01 00:34:67
  TRACK 33 AUDIO
    TITLE "0:"
    INDEX 01 00:36:05
  TRACK 34 AUDIO
    TITLE "14:cjc020_4008"
    INDEX 01 00:36:07
  TRACK 35 AUDIO
    TITLE "0:"
    INDEX 01 00:38:26
  TRACK 36 AUDIO
    TITLE "13:cjc020_4009"
    INDEX 01 00:39:05
  TRACK 37 AUDIO
    TITLE "0:"
    INDEX 01 00:40:17
  TRACK 38 AUDIO
    TITLE "14:cjc020_4010"
    INDEX 01 00:40:19
  TRACK 39 AUDIO
    TITLE "0:"
    INDEX 01 00:43:31
  TRACK 40 AUDIO
    TITLE "13:cjc020_4011"
    INDEX 01 00:44:11
  TRACK 41 AUDIO
    TITLE "0:"
    INDEX 01 00:45:43
  TRACK 42 AUDIO
    TITLE "14:cjc020_4012"
    INDEX 01 00:45:45
  TRACK 43 AUDIO
    TITLE "0:"
    INDEX 01 00:46:58
  TRACK 44 AUDIO
    TITLE "13:cjc020_4013"
    INDEX 01 00:47:44
  TRACK 45 AUDIO
    TITLE "0:"
    INDEX 01 00:48:65
  TRACK 46 AUDIO
    TITLE "14:cjc020_4014"
    INDEX 01 00:48:67
  TRACK 47 AUDIO
    TITLE "0:"
    INDEX 01 00:49:69
  TRACK 48 AUDIO
    TITLE "13:cjc020_4015"
    INDEX 01 00:50:46
  TRACK 49 AUDIO
    TITLE "0:"
    INDEX 01 00:51:58
  TRACK 50 AUDIO
    TITLE "14:cjc020_4016"
    INDEX 01 00:51:63
  TRACK 51 AUDIO
    TITLE "0:"
    INDEX 01 00:53:64
  TRACK 52 AUDIO
    TITLE "13:cjc020_4017"
    INDEX 01 00:54:48
  TRACK 53 AUDIO
    TITLE "0:"
    INDEX 01 00:55:61
  TRACK 54 AUDIO
    TITLE "14:cjc020_4018"
    INDEX 01 00:55:65
  TRACK 55 AUDIO
    TITLE "0:"
    INDEX 01 00:58:40
  TRACK 56 AUDIO
    TITLE "13:cjc020_4019"
    INDEX 01 00:59:18
  TRACK 57 AUDIO
    TITLE "0:"
    INDEX 01 01:00:55
  TRACK 58 AUDIO
    TITLE "14:cjc020_4020"
    INDEX 01 01:00:57
  TRACK 59 AUDIO
    TITLE "0:"
    INDEX 01 01:04:19
  TRACK 60 AUDIO
    TITLE "13:cjc020_4021"
    INDEX 01 01:04:74
  TRACK 61 AUDIO
    TITLE "0:"
    INDEX 01 01:06:32
  TRACK 62 AUDIO
    TITLE "14:cjc020_4022"
    INDEX 01 01:06:36
  TRACK 63 AUDIO
    TITLE "0:"
    INDEX 01 01:11:13
  TRACK 64 AUDIO
    TITLE "13:cjc020_4023"
    INDEX 01 01:11:66
  TRACK 65 AUDIO
    TITLE "0:"
    INDEX 01 01:13:08
  TRACK 66 AUDIO
    TITLE "14:cjc020_4024"
    INDEX 01 01:13:12
  TRACK 67 AUDIO
    TITLE "0:"
    INDEX 01 01:16:48
  TRACK 68 AUDIO
    TITLE "13:cjc020_4025"
    INDEX 01 01:17:24
  TRACK 69 AUDIO
    TITLE "0:"
    INDEX 01 01:18:47
  TRACK 70 AUDIO
    TITLE "14:cjc020_4026"
    INDEX 01 01:18:49
  TRACK 71 AUDIO
    TITLE "0:"
    INDEX 01 01:21:23
